PathFileType	4	(X/Y/Z)	D:\TRACE\v60_Jaco2_6-2-23\JustBodyDRS_Motion2_8-platform.trc
DataRate	CameraRate	NumFrames	NumMarkers	Units	OrigDataRate	OrigDataStartFrame	OrigNumFrames
100.00	100.00	      54	5	mm	100.00	4322	      6914
Frame#	Time	Left_Front			Right_Front			Left_Aft			Right_Aft			Post			
		X1	Y1	Z1	X2	Y2	Z2	X3	Y3	Z3	X4	Y4	Z4	X5	Y5	Z5	

4322	43.210	-809.07434	34.82973	-631.98883	761.25891	35.79192	-637.12396	-717.20972	-10.34319	502.22461	725.14911	-12.02540	511.78275	-22.25213	1345.76782	-901.59613	
4323	43.220	-810.08936	33.70776	-632.84662	759.99756	34.70789	-637.54309	-718.20514	-9.66585	502.07629	724.16980	-11.28613	511.38669	-23.47419	1343.85059	-904.92291	
4324	43.230	-811.05933	32.54887	-632.88086	758.88684	33.64030	-637.73779	-719.21942	-8.62248	501.73373	723.13147	-10.32421	511.20181	-24.62476	1342.04175	-909.00568	
4325	43.240	-812.32910	31.30621	-633.03503	757.66595	32.12906	-638.17078	-720.49133	-7.67635	501.27493	722.03046	-9.17525	511.16953	-26.18915	1340.28137	-912.80255	
4326	43.250	-813.57135	30.26514	-633.30804	756.74420	31.07191	-638.38916	-722.13953	-6.07142	501.30127	720.62714	-8.44702	510.85336	-26.95593	1338.53552	-916.99976	
4327	43.260	-814.71509	28.43073	-633.55017	755.56824	29.83666	-638.87579	-722.70300	-5.69126	500.97058	719.85413	-7.54697	510.44370	-27.99516	1336.74829	-919.97052	
4328	43.270	-815.58588	26.94621	-634.17346	754.34106	28.13321	-639.20392	-723.92621	-4.82636	500.71466	718.37976	-6.74433	510.08667	-28.99703	1334.89929	-923.39111	
4329	43.280	-816.68530	26.06941	-634.63824	753.14795	26.99166	-639.47845	-725.31390	-3.91521	500.33954	717.63141	-5.68981	509.88672	-29.94707	1332.85266	-926.21179	
4330	43.290	-818.16150	25.00624	-634.74817	752.11420	25.60946	-639.97888	-726.13324	-3.28874	500.08875	716.49005	-4.67825	509.66122	-31.60836	1330.95764	-929.07434	
4331	43.300	-819.09491	23.23648	-635.06696	750.83020	24.44939	-640.29889	-726.88574	-2.46885	500.02441	715.28552	-3.59059	509.52756	-32.90884	1328.98254	-931.72125	
4332	43.310	-820.24945	21.87828	-635.21625	749.86780	23.15973	-640.55817	-727.96851	-1.45295	499.53564	714.05249	-2.58498	508.94720	-33.83239	1327.04797	-934.15228	
4333	43.320	-821.08209	20.15143	-635.76715	748.95911	21.50179	-640.91174	-728.86542	-0.70983	499.26379	712.73334	-1.55082	508.59198	-34.73738	1324.84375	-936.20490	
4334	43.330	-822.55560	18.74606	-636.21808	747.74304	19.94821	-641.42975	-730.07874	0.32066	498.75845	711.84058	-0.54604	508.29950	-35.98171	1322.67358	-938.30438	
4335	43.340	-823.48730	17.56239	-636.67474	746.62274	18.50609	-641.86279	-731.11523	1.05989	498.45959	710.86536	0.60242	508.07898	-37.27467	1320.48230	-940.85187	
4336	43.350	-824.47284	16.06487	-636.81171	745.62048	17.24297	-642.03082	-731.78278	1.78287	498.49084	710.05200	1.76519	507.78738	-38.38204	1318.54651	-944.29883	
4337	43.360	-825.41223	14.61952	-637.21661	744.61548	15.95016	-642.29736	-733.62628	4.07238	497.33017	708.77789	2.69111	507.32785	-39.47164	1316.50708	-947.60913	
4338	43.370	-826.64026	13.41674	-637.94812	743.52081	14.38393	-642.88458	-734.63519	4.86579	497.28610	707.43494	3.60200	506.99109	-40.36186	1314.40320	-951.49298	
4339	43.380	-827.83331	11.85922	-637.91974	742.58435	13.12464	-643.00476	-735.55487	5.65367	497.02695	705.08704	3.71308	505.58438	-41.11311	1312.49768	-955.67902	
4340	43.390	-828.77679	10.31617	-638.32471	741.46161	11.49464	-643.39526	-737.39276	7.63605	496.32330	705.07245	5.51225	505.97754	-42.48056	1310.53796	-959.29999	
4341	43.400	-829.83087	9.02444	-638.68549	740.29602	10.13522	-643.81110	-737.60309	7.29133	496.63904	704.45978	6.66773	505.78854	-42.93279	1308.23352	-963.12238	
4342	43.410	-830.49750	7.57077	-638.70618	739.67761	8.84459	-643.70026	-738.40863	8.25733	496.29425	703.19708	7.60555	505.41501	-44.08382	1306.31824	-966.37469	
4343	43.420	-831.88245	6.30327	-639.25311	738.43195	7.39614	-644.21405	-739.42316	9.39042	495.91702	702.49512	8.78093	505.12012	-45.55325	1304.36877	-969.63702	
4344	43.430	-833.03534	5.08333	-639.52631	737.27667	6.05352	-644.83801	-740.58240	10.45051	495.46445	701.47101	9.70956	504.75357	-46.55390	1302.28210	-972.69250	
4345	43.440	-833.39716	2.26131	-640.17694	736.57697	4.67376	-645.14307	-741.51196	11.53792	495.20660	700.01733	10.53257	504.46497	-47.67848	1300.02283	-975.61694	
4346	43.450	-834.24402	1.57599	-640.05707	735.40564	3.03750	-645.42487	-742.59784	12.36457	494.87610	699.64978	11.75245	504.03201	-48.42673	1297.97717	-978.21362	
4347	43.460	-835.40546	0.28570	-640.56146	734.40857	1.74969	-645.67633	-743.49573	13.42767	494.48285	698.66223	12.57081	504.21323	-49.16634	1295.86597	-980.75262	
4348	43.470	-836.44141	-0.98042	-640.88965	733.54376	0.33525	-645.98639	-744.54132	14.56645	494.22626	697.25122	13.22486	503.44153	-50.22334	1293.68677	-983.01190	
4349	43.480	-837.59631	-2.39315	-641.11658	732.75018	-0.85044	-646.30170	-745.42993	15.57111	494.01270	696.28510	14.25255	503.07266	-50.93820	1291.51355	-985.18640	
4350	43.490	-838.43567	-3.62450	-641.37537	731.80273	-2.39933	-646.69806	-746.40289	16.63684	493.64020	694.88995	14.97035	502.59732	-52.09256	1289.53223	-987.50879	
4351	43.500	-839.16083	-5.24115	-641.91559	731.06104	-3.74830	-646.76953	-747.22717	17.41815	493.23904	693.34558	15.22868	501.81668	-53.29608	1287.60461	-989.92828	
4352	43.510	-840.02350	-6.50265	-642.05066	730.10034	-4.99537	-647.10645	-748.50415	18.70258	492.67886	695.20367	18.19433	503.28561	-54.01033	1285.52808	-993.07813	
4353	43.520	-840.64514	-7.46491	-642.46637	729.31873	-6.49526	-647.36835	-749.30157	19.50725	492.36957	694.03815	19.14901	502.59491	-54.72231	1283.64502	-996.29645	
4354	43.530	-841.49847	-9.07958	-642.67725	728.67859	-7.68211	-647.68909	-749.90271	20.62336	491.57211	693.17261	19.82010	502.20398	-55.75469	1281.59265	-999.78717	
4355	43.540	-842.49420	-10.03790	-642.95160	727.68188	-8.97722	-648.03485	-750.61041	21.31383	491.06451	692.30133	20.52016	501.80667	-56.66707	1279.33557	-1003.05334	
4356	43.550	-843.20917	-10.80791	-643.34100	726.98352	-9.90390	-648.33008	-751.06042	21.62829	491.42377	691.20178	21.57890	501.29678	-57.37701	1277.00415	-1006.12854	
4357	43.560	-843.98492	-12.82671	-643.50439	726.24402	-11.82970	-648.55701	-751.93353	22.65973	491.09708	690.44861	22.50534	500.69113	-58.24055	1274.92517	-1008.99847	
4358	43.570	-844.65466	-14.49886	-643.94000	725.57001	-13.60765	-648.88885	-752.69543	23.54588	490.78943	689.79608	23.46611	500.30270	-58.41018	1272.58142	-1012.20685	
4359	43.580	-845.36176	-15.96016	-644.38123	724.80200	-14.79356	-649.30389	-753.59967	24.72625	490.45627	689.12036	24.65689	500.01941	-59.09665	1270.47205	-1015.39185	
4360	43.590	-845.81360	-17.45267	-644.30225	724.09692	-16.12017	-649.41510	-754.15497	25.71569	490.13339	688.18774	25.52312	499.61896	-59.88128	1268.01355	-1018.26691	
4361	43.600	-846.54199	-18.73830	-644.77515	723.46521	-17.60178	-649.86798	-754.28076	26.15952	490.41220	687.64941	26.33878	499.13779	-60.42384	1266.00671	-1021.24976	
4362	43.610	-847.09985	-19.91224	-644.87830	723.19977	-19.05555	-649.79431	-755.21625	27.62778	489.19952	687.03534	27.20983	498.81955	-61.17131	1263.97827	-1024.36975	
4363	43.620	-847.52142	-21.26646	-645.21246	722.48999	-20.10107	-650.31378	-755.76483	28.42599	488.92880	686.24719	27.86715	498.30051	-61.63698	1262.19629	-1027.39343	
4364	43.630	-848.24078	-22.54997	-645.52185	722.20221	-21.12041	-650.38745	-756.48254	29.17014	488.55072	684.62024	28.01156	497.38791	-62.30947	1260.28467	-1030.65857	
4365	43.640	-848.85101	-23.36065	-645.65637	721.30139	-22.45030	-650.83380	-757.11542	29.97875	488.33017	686.27747	30.41207	498.65045	-62.42000	1258.49475	-1033.25000	
4366	43.650	-849.18774	-24.64169	-645.84369	721.07654	-23.65649	-650.78741	-757.37653	30.54675	488.14014	685.62549	30.89959	497.92584	-62.97683	1256.83337	-1035.90308	
4367	43.660	-849.59137	-25.77177	-645.84534	720.35773	-24.57889	-651.16217	-757.74677	31.38768	487.92697	685.12000	31.64299	497.69406	-63.37944	1254.83264	-1038.41870	
4368	43.670	-849.98444	-26.88592	-646.20776	720.17841	-25.50426	-651.38623	-757.91956	32.18616	487.61255	684.63910	32.24232	497.25482	-63.88669	1253.41272	-1040.65149	
4369	43.680	-850.26343	-27.54086	-646.60236	719.92383	-26.76453	-651.49042	-758.29401	32.92683	487.36819	683.95929	32.88482	496.75253	-64.60676	1251.82751	-1042.75464	
4370	43.690	-850.67566	-28.84027	-646.60394	719.76245	-27.65948	-651.48169	-758.78619	33.68618	487.02658	682.61774	32.81910	495.77454	-64.66770	1250.16650	-1044.84473	
4371	43.700	-850.87354	-29.97067	-646.85907	719.36810	-28.85553	-651.82813	-759.14294	34.25655	486.66345	683.20557	34.20176	495.82745	-64.84446	1248.42493	-1046.75977	
4372	43.710	-851.04761	-31.16528	-646.89832	719.15546	-29.81161	-652.07642	-759.24445	34.85737	486.42624	682.82751	34.82750	495.48688	-64.96010	1246.41699	-1048.65845	
4373	43.720	-851.10925	-32.06515	-647.18793	719.16675	-31.13102	-652.20398	-759.42023	35.92139	485.97360	683.86987	36.33540	496.34918	-65.46818	1245.09521	-1050.24524	
4374	43.730	-851.19519	-33.29426	-647.34406	719.08154	-31.89332	-652.55579	-759.57397	36.93987	485.72495	683.71399	37.11853	495.72342	-65.29766	1243.21094	-1051.86462	
4375	43.740	-851.23676	-34.39183	-647.45172	718.94189	-33.10016	-652.82538	-759.63739	37.50578	485.41846	683.13660	37.71561	495.42242	-65.56138	1241.70386	-1053.63196	
